#N canvas 219 83 965 519 10;
#X obj 230 141 tgl 15 0 empty empty empty 17 7 0 10 -262144 -1 -1 0
1;
#X obj 230 165 sel 0 1;
#X obj 77 410 *~;
#X obj -112 415 *~;
#X obj 92 354 line~;
#X obj -97 359 line~;
#X obj -112 186 spigot;
#X obj 77 188 spigot;
#X msg 525 235 1;
#X msg 492 235 0;
#X msg 230 236 1;
#X msg 261 236 0;
#X obj 417 210 t b b b b;
#X obj 230 212 t b b b b;
#X obj -112 441 outlet~;
#X obj -112 25 inlet;
#X text -72 25 sample location;
#X obj -112 77 t f f b;
#X text 285 136 toggle between tabplay~ objects to allow for crossfade
between sample lookup locations;
#X obj -62 195 r gen;
#X obj -62 217 sel 0;
#X msg -62 245 stop;
#X msg 417 235 0 15;
#X msg 453 235 1 15;
#X msg 292 236 1 15;
#X msg 328 236 0 15;
#X obj 110 167 r \$0_ch2_index;
#X obj -79 163 r \$0_ch1_index;
#X obj -97 335 r \$0_ch1_amp;
#X obj 92 330 r \$0_ch2_amp;
#X obj 328 257 s \$0_ch1_amp;
#X obj 292 280 s \$0_ch2_amp;
#X obj 261 302 s \$0_ch1_index;
#X obj 230 327 s \$0_ch2_index;
#X obj 525 266 s \$0_ch1_index;
#X obj 492 285 s \$0_ch2_index;
#X obj 453 306 s \$0_ch1_amp;
#X obj 417 327 s \$0_ch2_amp;
#X obj 77 279 tabplay~ \$1;
#X obj -112 284 tabplay~ \$1;
#X connect 0 0 1 0;
#X connect 1 0 13 0;
#X connect 1 1 12 0;
#X connect 2 0 14 0;
#X connect 3 0 14 0;
#X connect 4 0 2 1;
#X connect 5 0 3 1;
#X connect 6 0 39 0;
#X connect 7 0 38 0;
#X connect 8 0 34 0;
#X connect 9 0 35 0;
#X connect 10 0 33 0;
#X connect 11 0 32 0;
#X connect 12 0 22 0;
#X connect 12 1 23 0;
#X connect 12 2 9 0;
#X connect 12 3 8 0;
#X connect 13 0 10 0;
#X connect 13 1 11 0;
#X connect 13 2 24 0;
#X connect 13 3 25 0;
#X connect 15 0 17 0;
#X connect 17 0 6 0;
#X connect 17 1 7 0;
#X connect 17 2 0 0;
#X connect 19 0 20 0;
#X connect 20 0 21 0;
#X connect 21 0 38 0;
#X connect 21 0 39 0;
#X connect 22 0 37 0;
#X connect 23 0 36 0;
#X connect 24 0 31 0;
#X connect 25 0 30 0;
#X connect 26 0 7 1;
#X connect 27 0 6 1;
#X connect 28 0 5 0;
#X connect 29 0 4 0;
#X connect 38 0 2 0;
#X connect 39 0 3 0;
