#N canvas 3 22 1093 608 10;
#X msg 614 57 init;
#X obj 614 100 fo;
#X msg 60 196 add_state \$1;
#X floatatom 522 181 5 0 0 0 - - -;
#X msg 423 57 next_state;
#X obj 614 9 loadbang;
#X floatatom 619 181 5 0 0 0 - - -;
#X text 654 180 next_state;
#X text 558 180 n_states;
#X floatatom 732 180 5 0 0 0 - - -;
#X obj 59 349 mtof;
#X obj 59 501 dac~;
#X msg 721 8 set_p \$1;
#X floatatom 721 -18 5 0 0 0 - - -;
#X obj 60 82 seq;
#X msg 83 -2 bang;
#X msg 147 29 stop;
#X obj 60 112 midiparse;
#X obj 60 138 stripnote;
#X floatatom 60 166 5 0 0 0 - - -;
#X obj 189 196 timer;
#X obj 225 246 int;
#X obj 254 246 + 1;
#X obj 189 220 t f b;
#X msg 240 196 0;
#X obj 423 30 metro 333;
#X obj 423 -34 tgl 15 0 empty empty empty 17 7 0 10 -262144 -1 -1 1
1;
#X floatatom 619 288 5 0 0 0 - - -;
#X obj 557 57 r to_fo;
#X obj 189 275 tabwrite durations;
#X obj 60 221 s to_fo;
#X obj 189 300 table durations 5000;
#X obj 619 257 tabread durations;
#X msg 60 -33 read fp-4bou.mid;
#X floatatom 786 -17 5 0 0 0 - - -;
#X msg 786 7 set_lrs \$1;
#X obj 59 386 osc~;
#X text 186 -34 1 load midi file (monophonic);
#X text 124 -2 2 start training oracle;
#X obj 351 246 int;
#X obj 380 246 + 1;
#X obj 315 220 t f b;
#X msg 366 196 0;
#X obj 189 157 t b b f;
#X obj 83 29 s start;
#X obj 366 156 r start;
#X obj 315 275 tabwrite velocities;
#X obj 315 300 table velocities 5000;
#X obj 732 257 tabread velocities;
#X floatatom 732 291 5 0 0 0 - - -;
#X obj 732 319 / 127;
#X obj 732 348 s next_velocity;
#X obj 620 348 s next_duration;
#X obj 474 -11 r next_duration;
#X obj 59 461 *~;
#X obj 102 383 r next_velocity;
#X msg 102 407 \$1 25;
#X obj 102 430 line~;
#X obj 732 209 s next_pitch;
#X obj 59 322 r next_pitch;
#X text 768 179 data at next state;
#X text 442 -36 3 start generation;
#X text 722 -40 4 modify generation/navigation params;
#X connect 0 0 1 0;
#X connect 1 0 3 0;
#X connect 1 1 6 0;
#X connect 1 2 9 0;
#X connect 2 0 30 0;
#X connect 4 0 1 0;
#X connect 5 0 0 0;
#X connect 6 0 32 0;
#X connect 6 0 48 0;
#X connect 9 0 58 0;
#X connect 10 0 36 0;
#X connect 12 0 1 0;
#X connect 13 0 12 0;
#X connect 14 0 17 0;
#X connect 15 0 14 0;
#X connect 15 0 44 0;
#X connect 16 0 14 0;
#X connect 17 0 18 0;
#X connect 18 0 19 0;
#X connect 18 1 43 0;
#X connect 19 0 2 0;
#X connect 20 0 23 0;
#X connect 21 0 22 0;
#X connect 21 0 29 1;
#X connect 22 0 21 1;
#X connect 23 0 29 0;
#X connect 23 1 21 0;
#X connect 24 0 21 1;
#X connect 25 0 4 0;
#X connect 26 0 25 0;
#X connect 27 0 52 0;
#X connect 28 0 1 0;
#X connect 32 0 27 0;
#X connect 33 0 14 0;
#X connect 34 0 35 0;
#X connect 35 0 1 0;
#X connect 36 0 54 0;
#X connect 39 0 40 0;
#X connect 39 0 46 1;
#X connect 40 0 39 1;
#X connect 41 0 46 0;
#X connect 41 1 39 0;
#X connect 42 0 39 1;
#X connect 43 0 20 0;
#X connect 43 1 20 1;
#X connect 43 2 41 0;
#X connect 45 0 20 0;
#X connect 45 0 24 0;
#X connect 45 0 42 0;
#X connect 48 0 49 0;
#X connect 49 0 50 0;
#X connect 50 0 51 0;
#X connect 53 0 25 1;
#X connect 54 0 11 0;
#X connect 55 0 56 0;
#X connect 56 0 57 0;
#X connect 57 0 54 1;
#X connect 59 0 10 0;
